HIERARCHY
ROOT joint_Root
{
	OFFSET 0.0 0.0 0.0
	CHANNELS 6 Xposition Yposition Zposition Zrotation Xrotation Yrotation 
	JOINT Hips
	{
		OFFSET 4.5925 91.4895 -427.239
		CHANNELS 6 Xposition Yposition Zposition Zrotation Xrotation Yrotation 
		JOINT Spine
		{
			OFFSET 15.7357 0.0 0.0
			CHANNELS 6 Xposition Yposition Zposition Zrotation Xrotation Yrotation 
			JOINT Chest
			{
				OFFSET 8.98455 -0.406207 0.0
				CHANNELS 6 Xposition Yposition Zposition Zrotation Xrotation Yrotation 
				JOINT Neck
				{
					OFFSET 16.3773 0.0 0.0
					CHANNELS 6 Xposition Yposition Zposition Zrotation Xrotation Yrotation 
					JOINT Head
					{
						OFFSET 6.45672 0.0 0.0
						CHANNELS 6 Xposition Yposition Zposition Zrotation Xrotation Yrotation 
						End Site
						{
							OFFSET 0.0 0.0 0.0
						}
					}
				}
				JOINT Shoulder_L
				{
					OFFSET 12.9942 -0.242716 4.98039
					CHANNELS 6 Xposition Yposition Zposition Zrotation Xrotation Yrotation 
					JOINT UpperArm_L
					{
						OFFSET 5.34809 0.0 0.0
						CHANNELS 6 Xposition Yposition Zposition Zrotation Xrotation Yrotation 
						JOINT LowerArm_L
						{
							OFFSET 24.3286 1.87007e-05 0.0
							CHANNELS 6 Xposition Yposition Zposition Zrotation Xrotation Yrotation 
							JOINT Hand_L
							{
								OFFSET 22.2916 0.0 0.0
								CHANNELS 6 Xposition Yposition Zposition Zrotation Xrotation Yrotation 
								End Site
								{
									OFFSET 0.0 0.0 0.0
								}
							}
						}
					}
				}
				JOINT Shoulder_R
				{
					OFFSET 12.9945 -0.242716 -4.98039
					CHANNELS 6 Xposition Yposition Zposition Zrotation Xrotation Yrotation 
					JOINT UpperArm_R
					{
						OFFSET -5.34813 0.0 0.0
						CHANNELS 6 Xposition Yposition Zposition Zrotation Xrotation Yrotation 
						JOINT LowerArm_R
						{
							OFFSET -24.3289 0.000322201 0.0
							CHANNELS 6 Xposition Yposition Zposition Zrotation Xrotation Yrotation 
							JOINT Hand_R
							{
								OFFSET -22.2915 -0.000108084 0.0
								CHANNELS 6 Xposition Yposition Zposition Zrotation Xrotation Yrotation 
								End Site
								{
									OFFSET 0.0 0.0 0.0
								}
							}
						}
					}
				}
			}
		}
		JOINT UpperLeg_L
		{
			OFFSET -2.19248 -6.46944 0.0
			CHANNELS 6 Xposition Yposition Zposition Zrotation Xrotation Yrotation 
			JOINT LowerLeg_L
			{
				OFFSET 39.0811 0.0 -1.23785e-05
				CHANNELS 6 Xposition Yposition Zposition Zrotation Xrotation Yrotation 
				JOINT Foot_L
				{
					OFFSET 40.9854 0.0 -1.26872e-05
					CHANNELS 6 Xposition Yposition Zposition Zrotation Xrotation Yrotation 
					JOINT Toes_L
					{
						OFFSET 11.7543 0.0 0.0
						CHANNELS 6 Xposition Yposition Zposition Zrotation Xrotation Yrotation 
						End Site
						{
							OFFSET 0.0 0.0 0.0
						}
					}
				}
			}
		}
		JOINT UpperLeg_R
		{
			OFFSET -2.19251 6.46944 0.0
			CHANNELS 6 Xposition Yposition Zposition Zrotation Xrotation Yrotation 
			JOINT LowerLeg_R
			{
				OFFSET -39.0811 -0.00228153 -0.0401928
				CHANNELS 6 Xposition Yposition Zposition Zrotation Xrotation Yrotation 
				JOINT Foot_R
				{
					OFFSET -40.9854 0.0 0.0
					CHANNELS 6 Xposition Yposition Zposition Zrotation Xrotation Yrotation 
					JOINT Toes_R
					{
						OFFSET -11.7543 0.0 0.0
						CHANNELS 6 Xposition Yposition Zposition Zrotation Xrotation Yrotation 
						End Site
						{
							OFFSET 0.0 0.0 0.0
						}
					}
				}
			}
		}
	}
}
MOTION
Frames:	4
Frame Time:	0.0333333
0.000000 0.000000 0.000000 0.000000 0.000000 -0.000000 -0.752838 90.825400 1.915670 89.425000 -2.542580 5.351190 15.735700 0.000005 -0.000001 87.348900 88.273600 -87.644000 8.984550 -0.406207 -0.000000 -4.317130 -0.128481 -0.595341 16.377300 -0.000001 -0.000001 4.865480 -2.431230 2.319060 6.456720 -0.000001 -0.000000 -1.658160 -1.999820 1.325390 12.994200 -0.242716 4.980390 -84.288000 -10.628700 -61.528900 5.348090 -0.000007 -0.000001 -43.506200 -62.911500 -85.524900 24.328600 0.000019 0.000005 24.699200 14.202200 -61.922800 22.291600 -0.000001 0.000005 25.912900 5.430300 -3.949240 12.994500 -0.242716 -4.980390 94.329100 -10.429700 -67.306900 -5.348130 -0.000001 -0.000004 -47.481700 -58.680700 -90.741000 -24.328900 0.000322 -0.000009 6.670700 3.739760 -60.856800 -22.291500 -0.000108 -0.000004 25.040500 5.626690 -13.092100 -2.192480 -6.469440 -0.000000 -175.450000 -10.647200 -2.621400 39.081100 -0.000007 -0.000012 -0.207242 0.366239 29.504300 40.985400 -0.000006 -0.000013 -0.829146 3.180570 -71.342100 11.754300 -0.000000 0.000003 -0.000147 -0.001426 -16.631800 -2.192510 6.469440 -0.000001 175.966000 18.483800 179.217000 -39.081100 -0.002282 -0.040193 0.020199 -0.030544 28.948400 -40.985400 0.000008 0.000006 6.812950 10.579800 -73.119100 -11.754300 -0.000006 -0.000006 -0.001857 -0.026912 -17.667400
0.000000 0.000000 0.000000 0.000000 0.000000 -0.000000 -0.717756 90.840900 1.837280 89.410200 -2.676830 5.243610 15.735700 0.000005 -0.000001 87.758100 88.234600 -88.057000 8.984550 -0.406207 -0.000000 -4.238100 -0.106717 -0.602199 16.377300 -0.000001 -0.000001 4.830760 -2.391190 2.288900 6.456720 -0.000001 -0.000000 -1.644960 -1.957830 1.397260 12.994200 -0.242716 4.980390 -84.304200 -10.571900 -61.470400 5.348090 -0.000007 -0.000001 -44.031000 -63.149200 -86.035000 24.328600 0.000019 0.000005 24.763400 13.975700 -62.365500 22.291600 -0.000001 0.000005 25.586900 5.423830 -3.728340 12.994500 -0.242716 -4.980390 94.284800 -10.335800 -67.334900 -5.348130 -0.000001 -0.000004 -47.353700 -58.888200 -90.627100 -24.328900 0.000322 -0.000009 6.646160 3.711380 -60.951500 -22.291500 -0.000108 -0.000004 24.724100 5.622450 -12.789000 -2.192480 -6.469440 -0.000000 -175.488000 -10.717100 -2.747260 39.081100 -0.000007 -0.000012 -0.206175 0.364851 29.470800 40.985400 -0.000006 -0.000013 -0.824084 3.093710 -71.290300 11.754300 -0.000000 0.000003 -0.000151 -0.001457 -16.632900 -2.192510 6.469440 -0.000001 175.997000 18.490300 179.059000 -39.081100 -0.002282 -0.040193 0.019372 -0.029125 28.884900 -40.985400 0.000008 0.000006 6.780630 10.749500 -73.057800 -11.754300 -0.000006 -0.000006 -0.001721 -0.025173 -17.596700
0.000000 0.000000 0.000000 0.000000 0.000000 -0.000000 -0.669767 90.878500 1.794510 89.408000 -2.769070 5.188510 15.735700 0.000005 -0.000001 87.921200 88.193800 -88.217300 8.984550 -0.406207 -0.000000 -4.156290 -0.100150 -0.596208 16.377300 -0.000001 -0.000001 4.888940 -2.330030 2.281960 6.456720 -0.000001 -0.000000 -1.630030 -1.853710 1.415120 12.994200 -0.242716 4.980390 -84.357500 -10.457300 -61.438500 5.348090 -0.000007 -0.000001 -44.146500 -63.218400 -85.866000 24.328600 0.000019 0.000005 24.592200 13.391700 -63.158200 22.291600 -0.000001 0.000005 25.288000 5.412940 -3.362950 12.994500 -0.242716 -4.980390 94.218200 -10.180800 -67.350600 -5.348130 -0.000001 -0.000004 -46.547400 -59.107400 -89.799700 -24.328900 0.000322 -0.000009 6.407590 3.532700 -61.252500 -22.291500 -0.000108 -0.000004 24.350700 5.615290 -12.300600 -2.192480 -6.469440 -0.000000 -175.499000 -10.953900 -2.744610 39.081100 -0.000007 -0.000012 -0.201720 0.359419 29.303200 40.985400 -0.000006 -0.000013 -0.756418 3.220860 -71.173800 11.754300 -0.000000 0.000003 -0.000137 -0.001347 -16.628900 -2.192510 6.469440 -0.000001 175.953000 18.614800 179.037000 -39.081100 -0.002282 -0.040193 0.018603 -0.027901 28.737100 -40.985400 0.000008 0.000006 6.774070 10.986900 -72.922400 -11.754300 -0.000006 -0.000006 -0.001666 -0.024451 -17.567300
0.000000 0.000000 0.000000 0.000000 0.000000 -0.000000 -0.615409 90.915600 1.762580 89.443500 -2.769890 5.140140 15.735700 0.000005 -0.000001 87.297600 88.136400 -87.605900 8.984550 -0.406207 -0.000000 -4.043350 -0.143854 -0.622093 16.377300 -0.000001 -0.000001 4.904770 -2.298290 2.288590 6.456720 -0.000001 -0.000000 -1.597390 -1.753960 1.460880 12.994200 -0.242716 4.980390 -84.453400 -10.287100 -61.463000 5.348090 -0.000007 -0.000001 -43.577800 -63.073600 -84.480800 24.328600 0.000019 0.000005 23.846600 12.151100 -64.537000 22.291600 -0.000001 0.000005 25.031500 5.406830 -3.160680 12.994500 -0.242716 -4.980390 94.077700 -9.869280 -67.416500 -5.348130 -0.000001 -0.000004 -45.167000 -59.249600 -88.130600 -24.328900 0.000322 -0.000009 5.888100 3.114930 -62.222000 -22.291500 -0.000108 -0.000004 23.678600 5.601460 -11.425200 -2.192480 -6.469440 -0.000000 -175.583000 -11.017500 -2.705870 39.081100 -0.000007 -0.000012 -0.197547 0.354985 29.095900 40.985400 -0.000006 -0.000013 -0.709247 3.246480 -71.061700 11.754300 -0.000000 0.000003 -0.000129 -0.001274 -16.626200 -2.192510 6.469440 -0.000001 175.867000 18.766700 179.083000 -39.081100 -0.002282 -0.040193 0.018520 -0.027996 28.523200 -40.985400 0.000008 0.000006 6.784880 11.151300 -72.860100 -11.754300 -0.000006 -0.000006 -0.001726 -0.025232 -17.599100
